<svg xmlns="http://www.w3.org/2000/svg" viewBox="0 0 512 512">
  <defs>
    <radialGradient id="bg" cx="35%" cy="30%" r="80%"><stop offset="0" stop-color="#3a2466"/><stop offset="1" stop-color="#0b0a10"/></radialGradient>
    <radialGradient id="pumpkin" cx="40%" cy="35%" r="70%"><stop offset="0" stop-color="#ffc07a"/><stop offset=".6" stop-color="#ff7a1a"/><stop offset="1" stop-color="#b44a00"/></radialGradient>
  </defs>
  <rect width="512" height="512" rx="112" fill="url(#bg)"/>
  <path d="M256 150c-10-30 0-52 22-62" stroke="#3fa56b" stroke-width="22" fill="none" stroke-linecap="round"/>
  <ellipse cx="256" cy="290" rx="170" ry="140" fill="url(#pumpkin)"/>
  <path d="M256 152c-40 40-40 236 0 278M256 152c40 40 40 236 0 278" stroke="#c75400" stroke-width="10" fill="none" opacity=".6"/>
  <path d="M170 255l45-30 20 45zM342 255l-45-30-20 45z" fill="#1b0f05"/>
  <path d="M170 320c40 40 132 40 172 0l-22 12-18-14-20 16-20-16-20 16-20-16-18 14z" fill="#1b0f05"/>
</svg>
